<?xml version="1.0" encoding="utf-8"?>
<!-- Generator: Adobe Illustrator 19.0.0, SVG Export Plug-In . SVG Version: 6.00 Build 0)  -->
<svg version="1.1" id="Capa_1" xmlns="http://www.w3.org/2000/svg" xmlns:xlink="http://www.w3.org/1999/xlink" x="0px" y="0px"
	 viewBox="0 0 19 11.3" style="enable-background:new 0 0 19 11.3;" xml:space="preserve">
<style type="text/css">
	.st0{fill:#FFFFFF;stroke:#99989D;stroke-width:0.4689;stroke-linecap:round;stroke-linejoin:round;stroke-miterlimit:10;}
	.st1{fill:none;stroke:#99989D;stroke-width:0.4567;stroke-linecap:round;stroke-linejoin:round;stroke-miterlimit:10;}
	.st2{fill:#99989D;}
	.st3{fill:none;stroke:#99989D;stroke-width:0.9743;stroke-linecap:round;stroke-linejoin:round;stroke-miterlimit:10;}
</style>
<g id="XMLID_1_">
	<g id="XMLID_1108_">
		<path id="XMLID_1115_" class="st0" d="M11.2,9.9c0.2,0.1,0.4,0.1,0.7,0.1c0.9,0,1.6-0.7,1.6-1.5C14.3,8.5,15,7.8,15,6.9
			c0-0.8-0.6-1.5-1.3-1.6c0.1-0.2,0.1-0.4,0.1-0.6c0-1-0.8-1.8-1.8-1.8c-0.3,0-0.5,0.1-0.8,0.2c-0.4-0.6-1-0.9-1.7-0.9
			c-0.7,0-1.3,0.4-1.7,0.9C7.5,3,7.3,2.9,7,2.9c-1,0-1.8,0.8-1.8,1.8c0,0.2,0,0.4,0.1,0.6C4.6,5.5,4,6.1,4,6.9
			c0,0.9,0.7,1.6,1.5,1.6c0.1,0.8,0.8,1.5,1.6,1.5c0.2,0,0.5-0.1,0.7-0.1c0,0,0.2,1.1,1.7,1.1C11.1,11,11.2,9.9,11.2,9.9z"/>
		<path id="XMLID_1114_" class="st1" d="M8.6,7.2c0,0,0,0.9,0.9,0.9c0.8,0,0.9-0.9,0.9-0.9"/>
		<circle id="XMLID_1110_" class="st2" cx="8" cy="6.5" r="0.3"/>
		<circle id="XMLID_1109_" class="st2" cx="10.8" cy="6.5" r="0.3"/>
	</g>
	<path id="XMLID_1088_" class="st3" d="M0.5,9.5c0-5,4-9,9-9s9,4,9,9"/>
</g>
</svg>
